<svg version="1.1" viewBox="0.0 0.0 280.0 140.0" fill="none" stroke="none" stroke-linecap="square" stroke-miterlimit="10" xmlns:xlink="http://www.w3.org/1999/xlink" xmlns="http://www.w3.org/2000/svg"><clipPath id="g2592c154daa_0_0.0"><path d="m0 0l960.0 0l0 540.0l-960.0 0l0 -540.0z" clip-rule="nonzero"/></clipPath><g clip-path="url(#g2592c154daa_0_0.0)"><path fill="#000000" fill-opacity="0.0" d="m0 0l960.0 0l0 540.0l-960.0 0z" fill-rule="evenodd"/><g filter="url(#shadowFilter-g2592c154daa_0_0.1)"><use xlink:href="#g2592c154daa_0_0.1" transform="matrix(1.0 0.0 0.0 1.0 0.0 4.0)"/></g><defs><filter id="shadowFilter-g2592c154daa_0_0.1" filterUnits="userSpaceOnUse"><feGaussianBlur in="SourceAlpha" stdDeviation="2.5" result="blur"/><feComponentTransfer in="blur" color-interpolation-filters="sRGB"><feFuncR type="linear" slope="0" intercept="0.0"/><feFuncG type="linear" slope="0" intercept="0.0"/><feFuncB type="linear" slope="0" intercept="0.0"/><feFuncA type="linear" slope="0.5" intercept="0"/></feComponentTransfer></filter></defs><g id="g2592c154daa_0_0.1"><path fill="#000000" fill-opacity="0.0" d="m10.687664 9.107612l288.189 0l0 116.34646l-288.189 0z" fill-rule="evenodd"/><path fill="#ffffff" d="m53.843914 77.06386q1.046875 0 1.640625 0.96875q0.609375 0.953125 0.609375 2.640625q0 3.1875 -1.53125 4.953125q-3.4375 4.234375 -7.484375 6.96875q-4.03125 2.71875 -9.15625 2.71875q-7.03125 0 -10.4375 -6.40625q-3.390625 -6.40625 -3.390625 -16.5625q0 -9.75 2.515625 -22.234375q2.515625 -12.484375 7.4375 -21.437502q4.921875 -8.96875 11.71875 -8.96875q3.84375 0 6.03125 3.5625q2.203125 3.5625 2.203125 10.203127q0 9.515625 -5.28125 22.078125q-5.265625 12.5625 -14.3125 24.875q0.5625 3.28125 1.84375 4.6875q1.28125 1.390625 3.359375 1.390625q3.28125 0 5.75 -1.875q2.484375 -1.875 6.328125 -6.4375q0.953125 -1.125 2.15625 -1.125zm-9.84375 -49.4375q-1.828125 0 -4.15625 6.640627q-2.3125 6.640625 -4.078125 16.484375q-1.765625 9.84375 -1.921875 18.875q5.6875 -9.359375 9.046875 -18.75q3.359375 -9.40625 3.359375 -17.171875q0 -6.078127 -2.25 -6.078127zm14.654968 67.6875q-4.96875 0 -7.9375 -3.59375q-2.953125 -3.609375 -2.953125 -9.453125q0 -6.40625 2.953125 -12.125q2.96875 -5.71875 7.890625 -9.1875q4.921875 -3.484375 10.437504 -3.484375q1.765625 0 2.359375 0.6875q0.609375 0.671875 1.0 2.4375q1.6875 -0.328125 3.515625 -0.328125q3.921875 0 3.921875 2.796875q0 1.6875 -1.1875 8.0q-1.84375 9.203125 -1.84375 12.796875q0 1.203125 0.59375 1.921875q0.609375 0.71875 1.5625 0.71875q1.515625 0 3.671875 -1.953125q2.171875 -1.953125 5.84375 -6.359375q0.96875 -1.125 2.171875 -1.125q1.03125 0 1.625 0.96875q0.609375 0.953125 0.609375 2.640625q0 3.1875 -1.515625 4.953125q-3.28125 4.078125 -6.96875 6.890625q-3.671875 2.796875 -7.125 2.796875q-2.625 0 -4.828125 -1.796875q-2.203125 -1.8125 -3.328125 -4.921875q-4.15625 6.71875 -10.468754 6.71875zm2.875 -8.09375q1.75 0 3.3437538 -2.078125q1.609375 -2.078125 2.328125 -5.515625l2.96875 -14.71875q-3.359375 0.078125 -6.203129 2.515625q-2.84375 2.4375 -4.53125 6.4375q-1.671875 4.0 -1.671875 8.484375q0 2.484375 1.0 3.6875q1.0 1.1875 2.765625 1.1875zm30.55309 8.09375q-3.03125 0 -4.28125 -3.203125q-1.234375 -3.203125 -1.234375 -10.25q0 -10.390625 2.953125 -19.75q0.734375 -2.328125 2.359375 -3.40625q1.640625 -1.078125 4.609375 -1.078125q1.59375 0 2.234375 0.40625q0.640625 0.390625 0.640625 1.515625q0 1.28125 -1.203125 5.765625q-0.796875 3.1875 -1.28125 5.59375q-0.46875 2.40625 -0.796875 5.921875q2.640625 -6.875 5.921875 -11.1875q3.28125 -4.328125 6.4375 -6.171875q3.171875 -1.84375 5.8125 -1.84375q5.1875 0 5.1875 5.203125q0 3.125 -1.75 11.28125q-1.53125 6.953125 -1.53125 9.203125q0 3.1875 2.328125 3.1875q1.59375 0 3.796875 -1.953125q2.203125 -1.953125 5.875 -6.359375q0.96875 -1.125 2.171875 -1.125q1.03125 0 1.625 0.96875q0.609375 0.953125 0.609375 2.640625q0 3.1875 -1.515625 4.953125q-3.4375 4.234375 -7.40625 6.96875q-3.953125 2.71875 -9.0 2.71875q-4.078125 0 -6.15625 -2.359375q-2.078125 -2.359375 -2.078125 -6.84375q0 -2.25 1.109375 -8.0q1.046875 -5.046875 1.046875 -6.96875q0 -1.28125 -0.875 -1.28125q-1.046875 0 -2.9375 2.6875q-1.875 2.671875 -3.828125 7.078125q-1.953125 4.40625 -3.15625 9.28125q-0.890625 3.765625 -2.046875 5.09375q-1.15625 1.3125 -3.640625 1.3125zm61.117462 -35.046875q2.0 0 2.84375 0.609375q0.84375 0.59375 0.84375 2.34375q0 0.96875 -0.078125 1.53125q-0.328125 2.46875 -2.0 12.796875q-1.203125 6.953125 -1.515625 9.203125q-3.046875 20.640625 -8.203125 32.59375q-5.15625 11.96875 -13.796875 11.96875q-4.09375 0 -6.65625 -2.53125q-2.546875 -2.515625 -2.546875 -6.59375q0 -5.6875 4.46875 -12.203125q4.484375 -6.515625 16.8125 -16.03125l0.46875 -3.125q-1.359375 2.15625 -3.5625 3.328125q-2.1875 1.15625 -4.34375 1.15625q-4.96875 0 -7.9375 -3.59375q-2.953125 -3.609375 -2.953125 -9.453125q0 -6.40625 2.953125 -12.125q2.96875 -5.71875 7.890625 -9.1875q4.921875 -3.484375 10.4375 -3.484375q1.765625 0 2.359375 0.6875q0.609375 0.671875 1.0 2.4375q1.515625 -0.328125 3.515625 -0.328125zm-14.390625 26.953125q1.84375 0 3.515625 -2.234375q1.6875 -2.234375 2.40625 -6.390625l2.5625 -13.6875q-3.28125 0.078125 -6.09375 2.515625q-2.796875 2.4375 -4.484375 6.4375q-1.671875 4.0 -1.671875 8.484375q0 2.484375 1.0 3.6875q1.0 1.1875 2.765625 1.1875zm-6.640625 36.328125q2.0 0 4.515625 -4.796875q2.515625 -4.796875 4.84375 -15.28125q-6.15625 5.28125 -8.875 9.515625q-2.71875 4.234375 -2.71875 7.4375q0 1.359375 0.515625 2.234375q0.515625 0.890625 1.71875 0.890625z" fill-rule="nonzero"/><path fill="#1155cc" d="m193.93315 72.50136q2.234375 0 2.234375 3.359375q0 6.328125 -9.921875 6.328125q-1.921875 0 -5.515625 -0.71875q1.03125 4.953125 1.703125 11.0q0.6875 6.03125 0.6875 9.953125q0 8.640625 -2.796875 13.203125q-2.796875 4.5625 -7.359375 4.5625q-5.75 0 -8.203125 -8.171875q-2.4375 -8.15625 -2.4375 -24.625q0 -15.359375 3.3125 -31.15625q3.328125 -15.8125 9.125 -26.171877q5.8125 -10.359375 12.765625 -10.359375q3.765625 0 5.875 3.359375q2.125 3.359375 2.125 9.046877q0 18.796875 -22.484375 40.953125q-0.796875 7.84375 -0.796875 13.765625q0 8.234375 0.5625 16.90625q0.5625 8.6875 1.84375 8.6875q2.390625 0 2.390625 -8.3125q0 -6.25 -0.84375 -12.078125q-0.828125 -5.84375 -2.265625 -12.328125q-0.078125 -1.03125 0.671875 -2.625q0.765625 -1.609375 1.875 -2.8125q1.125 -1.203125 2.0 -1.203125q1.609375 0 3.84375 0.15625q0.71875 0.09375 1.6875 0.09375q3.203125 0 7.109375 -0.5625q0.640625 -0.078125 1.359375 -0.15625q0.734375 -0.09375 1.453125 -0.09375zm-8.078125 -44.875q-1.453125 0 -3.578125 4.890627q-2.109375 4.875 -4.1875 12.921875q-2.078125 8.03125 -3.609375 16.984375q6.40625 -7.28125 9.84375 -15.15625q3.4375 -7.875 3.53125 -14.765625q0 -4.875002 -2.0 -4.875002zm12.392471 67.6875q-3.59375 0 -5.875 -3.3125q-2.28125 -3.328125 -2.28125 -8.296875q0 -6.0 0.796875 -11.0q0.796875 -5.0 2.640625 -10.59375q0.796875 -2.40625 2.234375 -3.4375q1.4375 -1.046875 4.5625 -1.046875q1.765625 0 2.4375 0.5625q0.6875 0.5625 0.6875 1.671875q0 0.640625 -0.890625 4.328125q-0.796875 2.953125 -1.265625 5.359375q-1.609375 8.40625 -1.609375 11.203125q0 1.671875 0.390625 2.359375q0.40625 0.671875 1.296875 0.671875q1.1875 0 2.984375 -2.390625q1.8125 -2.40625 3.84375 -7.28125q2.046875 -4.890625 3.96875 -12.0q0.640625 -2.40625 1.953125 -3.4375q1.328125 -1.046875 3.96875 -1.046875q1.84375 0 2.5625 0.4375q0.71875 0.4375 0.71875 1.640625q0 2.0 -2.0 10.96875q-2.25 10.234375 -2.25 12.640625q0 1.515625 0.640625 2.359375q0.640625 0.828125 1.6875 0.828125q1.59375 0 3.796875 -1.953125q2.203125 -1.953125 5.875 -6.359375q0.96875 -1.125 2.171875 -1.125q1.03125 0 1.625 0.96875q0.609375 0.953125 0.609375 2.640625q0 3.1875 -1.515625 4.953125q-3.453125 4.234375 -7.40625 6.96875q-3.953125 2.71875 -9.0 2.71875q-3.84375 0 -5.640625 -2.953125q-1.796875 -2.96875 -1.796875 -8.328125q-1.359375 5.4375 -4.078125 8.359375q-2.71875 2.921875 -5.84375 2.921875zm34.475586 0q-3.03125 0 -4.28125 -3.203125q-1.234375 -3.203125 -1.234375 -10.25q0 -10.390625 2.953125 -19.75q0.734375 -2.328125 2.359375 -3.40625q1.640625 -1.078125 4.609375 -1.078125q1.59375 0 2.234375 0.40625q0.640625 0.390625 0.640625 1.515625q0 1.28125 -1.203125 5.765625q-0.796875 3.1875 -1.28125 5.59375q-0.46875 2.40625 -0.796875 5.921875q2.640625 -6.875 5.921875 -11.1875q3.28125 -4.328125 6.4375 -6.171875q3.171875 -1.84375 5.8125 -1.84375q2.546875 0 3.859375 1.328125q1.328125 1.3125 1.328125 3.875q0 2.078125 -0.875 7.84375q-0.796875 4.875 -1.28125 9.234375q-0.484375 4.359375 -0.484375 9.71875q0 3.046875 -1.234375 4.375q-1.234375 1.3125 -4.046875 1.3125q-2.640625 0 -3.84375 -1.359375q-1.1875 -1.359375 -1.1875 -4.09375q0 -3.1875 1.125 -10.546875q0.953125 -6.40625 0.953125 -8.171875q0 -1.28125 -0.875 -1.28125q-1.046875 0 -2.9375 2.6875q-1.875 2.671875 -3.828125 7.078125q-1.953125 4.40625 -3.15625 9.28125q-0.890625 3.765625 -2.046875 5.09375q-1.15625 1.3125 -3.640625 1.3125z" fill-rule="nonzero"/></g></g></svg>